<mxfile host="drawio-plugin" modified="2022-12-13T02:10:56.475Z" agent="5.0 (Macintosh; Intel Mac OS X 11_7_1) AppleWebKit/537.36 (KHTML, like Gecko) Chrome/89.0.4389.114 Safari/537.36" version="13.7.9" etag="Ea9IX0z_q6ptRJaq7dOj" type="embed" pages="3"><diagram id="KF7kKyZRPQgfiiGVZ_2i" name="tun"><mxGraphModel dx="890" dy="634" grid="1" gridSize="10" guides="1" tooltips="1" connect="1" arrows="1" fold="1" page="1" pageScale="1" pageWidth="850" pageHeight="1100" math="0" shadow="0"><root><mxCell id="oVnWekzC2Xa2Aq6sgIbF-0"/><mxCell id="oVnWekzC2Xa2Aq6sgIbF-1" parent="oVnWekzC2Xa2Aq6sgIbF-0"/></root></mxGraphModel></diagram><diagram id="3n921f3iXirqcN1u3Ysv" name="single"><mxGraphModel dx="890" dy="634" grid="1" gridSize="10" guides="1" tooltips="1" connect="1" arrows="1" fold="1" page="1" pageScale="1" pageWidth="3300" pageHeight="4681" math="0" shadow="0"><root><mxCell id="KkZHtV6HfjBjP-QfyIvR-0"/><mxCell id="KkZHtV6HfjBjP-QfyIvR-1" parent="KkZHtV6HfjBjP-QfyIvR-0"/><mxCell id="rrIn8BsDmMunWOERDtQa-9" value="" style="verticalLabelPosition=bottom;verticalAlign=top;html=1;shape=mxgraph.basic.rect;fillColor2=none;strokeWidth=1;size=20;indent=5;fillColor=none;dashed=1;" parent="KkZHtV6HfjBjP-QfyIvR-1" vertex="1"><mxGeometry x="300" y="1040" width="780" height="660" as="geometry"/></mxCell><mxCell id="rrIn8BsDmMunWOERDtQa-5" value="" style="verticalLabelPosition=bottom;verticalAlign=top;html=1;shape=mxgraph.basic.rect;fillColor2=none;strokeWidth=1;size=20;indent=5;fillColor=none;dashed=1;" parent="KkZHtV6HfjBjP-QfyIvR-1" vertex="1"><mxGeometry x="700" y="1250" width="280" height="440" as="geometry"/></mxCell><mxCell id="vicqEd6XC0AAev5NyINa-0" value="" style="verticalLabelPosition=bottom;verticalAlign=top;html=1;shape=mxgraph.basic.rect;fillColor2=none;strokeWidth=1;size=20;indent=5;fillColor=none;dashed=1;" parent="KkZHtV6HfjBjP-QfyIvR-1" vertex="1"><mxGeometry x="300" y="1250" width="200" height="440" as="geometry"/></mxCell><mxCell id="rrIn8BsDmMunWOERDtQa-23" style="edgeStyle=orthogonalEdgeStyle;html=1;entryX=0.5;entryY=0;entryDx=0;entryDy=0;fontSize=16;startArrow=none;startFill=0;" parent="KkZHtV6HfjBjP-QfyIvR-1" source="Fyzt-uK-mrvEkcZ5hX47-2" target="rrIn8BsDmMunWOERDtQa-2" edge="1"><mxGeometry relative="1" as="geometry"/></mxCell><mxCell id="rrIn8BsDmMunWOERDtQa-24" style="edgeStyle=orthogonalEdgeStyle;html=1;entryX=0.5;entryY=0;entryDx=0;entryDy=0;fontSize=16;startArrow=none;startFill=0;" parent="KkZHtV6HfjBjP-QfyIvR-1" source="Fyzt-uK-mrvEkcZ5hX47-2" target="rrIn8BsDmMunWOERDtQa-17" edge="1"><mxGeometry relative="1" as="geometry"/></mxCell><mxCell id="rrIn8BsDmMunWOERDtQa-25" style="edgeStyle=orthogonalEdgeStyle;html=1;entryX=0.5;entryY=0;entryDx=0;entryDy=0;fontSize=16;startArrow=none;startFill=0;" parent="KkZHtV6HfjBjP-QfyIvR-1" source="Fyzt-uK-mrvEkcZ5hX47-2" target="rrIn8BsDmMunWOERDtQa-15" edge="1"><mxGeometry relative="1" as="geometry"/></mxCell><mxCell id="rrIn8BsDmMunWOERDtQa-26" style="edgeStyle=orthogonalEdgeStyle;html=1;entryX=0.5;entryY=0;entryDx=0;entryDy=0;fontSize=16;startArrow=none;startFill=0;" parent="KkZHtV6HfjBjP-QfyIvR-1" source="Fyzt-uK-mrvEkcZ5hX47-2" target="rrIn8BsDmMunWOERDtQa-16" edge="1"><mxGeometry relative="1" as="geometry"/></mxCell><mxCell id="Fyzt-uK-mrvEkcZ5hX47-2" value="&lt;font style=&quot;font-size: 19px&quot;&gt;I/O&lt;br&gt;Multiplexing&lt;/font&gt;" style="rounded=1;whiteSpace=wrap;html=1;strokeWidth=2;fillWeight=4;hachureGap=8;hachureAngle=45;fillColor=#5FAD56;sketch=1;fontSize=16;opacity=60;" parent="KkZHtV6HfjBjP-QfyIvR-1" vertex="1"><mxGeometry x="440" y="1060" width="330" height="60" as="geometry"/></mxCell><mxCell id="Fyzt-uK-mrvEkcZ5hX47-3" style="edgeStyle=orthogonalEdgeStyle;html=1;entryX=0.5;entryY=0;entryDx=0;entryDy=0;fontSize=25;startArrow=classic;startFill=1;" parent="KkZHtV6HfjBjP-QfyIvR-1" source="Fyzt-uK-mrvEkcZ5hX47-4" target="Fyzt-uK-mrvEkcZ5hX47-2" edge="1"><mxGeometry relative="1" as="geometry"><Array as="points"><mxPoint x="470" y="1030"/><mxPoint x="605" y="1030"/></Array></mxGeometry></mxCell><mxCell id="Fyzt-uK-mrvEkcZ5hX47-4" value="&lt;font style=&quot;font-size: 18px&quot;&gt;socket&lt;/font&gt;" style="ellipse;whiteSpace=wrap;html=1;strokeWidth=2;fillWeight=2;hachureGap=8;fillColor=#E9C46A;fillStyle=dots;sketch=1;fontSize=16;opacity=60;" parent="KkZHtV6HfjBjP-QfyIvR-1" vertex="1"><mxGeometry x="410" y="950" width="120" height="60" as="geometry"/></mxCell><mxCell id="Fyzt-uK-mrvEkcZ5hX47-24" style="edgeStyle=orthogonalEdgeStyle;html=1;entryX=0.5;entryY=0;entryDx=0;entryDy=0;fontSize=18;exitX=0.5;exitY=1;exitDx=0;exitDy=0;startArrow=classic;startFill=1;" parent="KkZHtV6HfjBjP-QfyIvR-1" source="Fyzt-uK-mrvEkcZ5hX47-6" target="Fyzt-uK-mrvEkcZ5hX47-2" edge="1"><mxGeometry relative="1" as="geometry"><Array as="points"><mxPoint x="740" y="1030"/><mxPoint x="605" y="1030"/></Array></mxGeometry></mxCell><mxCell id="Fyzt-uK-mrvEkcZ5hX47-6" value="&lt;font style=&quot;font-size: 18px&quot;&gt;socket&lt;/font&gt;" style="ellipse;whiteSpace=wrap;html=1;strokeWidth=2;fillWeight=2;hachureGap=8;fillColor=#E9C46A;fillStyle=dots;sketch=1;fontSize=16;opacity=60;" parent="KkZHtV6HfjBjP-QfyIvR-1" vertex="1"><mxGeometry x="680" y="950" width="120" height="60" as="geometry"/></mxCell><mxCell id="qVk-_wfB0VwJsGi2b_M8-5" style="edgeStyle=orthogonalEdgeStyle;html=1;fontSize=16;startArrow=none;startFill=0;" parent="KkZHtV6HfjBjP-QfyIvR-1" source="Fyzt-uK-mrvEkcZ5hX47-14" target="Fyzt-uK-mrvEkcZ5hX47-16" edge="1"><mxGeometry relative="1" as="geometry"/></mxCell><mxCell id="Fyzt-uK-mrvEkcZ5hX47-14" value="&lt;font style=&quot;font-size: 18px&quot;&gt;aeApiPoll&lt;/font&gt;" style="rounded=1;whiteSpace=wrap;html=1;strokeWidth=2;fillWeight=4;hachureGap=8;hachureAngle=45;fillColor=#5FAD56;sketch=1;fontSize=16;opacity=60;" parent="KkZHtV6HfjBjP-QfyIvR-1" vertex="1"><mxGeometry x="530" y="1270" width="150" height="60" as="geometry"/></mxCell><mxCell id="qVk-_wfB0VwJsGi2b_M8-6" style="edgeStyle=orthogonalEdgeStyle;html=1;entryX=0.5;entryY=0;entryDx=0;entryDy=0;fontSize=16;startArrow=none;startFill=0;" parent="KkZHtV6HfjBjP-QfyIvR-1" source="Fyzt-uK-mrvEkcZ5hX47-16" target="qVk-_wfB0VwJsGi2b_M8-0" edge="1"><mxGeometry relative="1" as="geometry"/></mxCell><mxCell id="Fyzt-uK-mrvEkcZ5hX47-16" value="acceptTcpHandler" style="rounded=1;whiteSpace=wrap;html=1;strokeWidth=2;fillWeight=2;hachureGap=8;hachureAngle=45;fillColor=#E9C46A;sketch=1;fontSize=16;fillStyle=dots;opacity=60;" parent="KkZHtV6HfjBjP-QfyIvR-1" vertex="1"><mxGeometry x="320" y="1270" width="160" height="60" as="geometry"/></mxCell><mxCell id="Fyzt-uK-mrvEkcZ5hX47-25" style="edgeStyle=orthogonalEdgeStyle;html=1;entryX=0.5;entryY=0;entryDx=0;entryDy=0;fontSize=18;startArrow=classic;startFill=1;" parent="KkZHtV6HfjBjP-QfyIvR-1" source="Fyzt-uK-mrvEkcZ5hX47-21" target="Fyzt-uK-mrvEkcZ5hX47-2" edge="1"><mxGeometry relative="1" as="geometry"/></mxCell><mxCell id="Fyzt-uK-mrvEkcZ5hX47-21" value="&lt;font style=&quot;font-size: 18px&quot;&gt;socket&lt;/font&gt;" style="ellipse;whiteSpace=wrap;html=1;strokeWidth=2;fillWeight=2;hachureGap=8;fillColor=#E9C46A;fillStyle=dots;sketch=1;fontSize=16;opacity=60;" parent="KkZHtV6HfjBjP-QfyIvR-1" vertex="1"><mxGeometry x="545" y="950" width="120" height="60" as="geometry"/></mxCell><mxCell id="Fyzt-uK-mrvEkcZ5hX47-29" style="edgeStyle=orthogonalEdgeStyle;html=1;entryX=0.425;entryY=0;entryDx=0;entryDy=0;entryPerimeter=0;fontSize=19;startArrow=classic;startFill=1;" parent="KkZHtV6HfjBjP-QfyIvR-1" source="Fyzt-uK-mrvEkcZ5hX47-26" target="Fyzt-uK-mrvEkcZ5hX47-4" edge="1"><mxGeometry relative="1" as="geometry"/></mxCell><mxCell id="Fyzt-uK-mrvEkcZ5hX47-26" value="&lt;font style=&quot;font-size: 18px&quot;&gt;client&lt;/font&gt;" style="rounded=0;whiteSpace=wrap;html=1;fontFamily=Helvetica;fontSize=12;fontColor=default;strokeColor=default;fillColor=#2A9D8F;strokeWidth=2;fillWeight=2;hachureGap=8;fillStyle=dots;sketch=1;opacity=60;" parent="KkZHtV6HfjBjP-QfyIvR-1" vertex="1"><mxGeometry x="400" y="850" width="120" height="60" as="geometry"/></mxCell><mxCell id="Fyzt-uK-mrvEkcZ5hX47-30" style="edgeStyle=orthogonalEdgeStyle;html=1;entryX=0.5;entryY=0;entryDx=0;entryDy=0;fontSize=19;startArrow=classic;startFill=1;" parent="KkZHtV6HfjBjP-QfyIvR-1" source="Fyzt-uK-mrvEkcZ5hX47-27" target="Fyzt-uK-mrvEkcZ5hX47-21" edge="1"><mxGeometry relative="1" as="geometry"/></mxCell><mxCell id="Fyzt-uK-mrvEkcZ5hX47-27" value="&lt;font style=&quot;font-size: 18px&quot;&gt;client&lt;/font&gt;" style="rounded=0;whiteSpace=wrap;html=1;fontFamily=Helvetica;fontSize=12;fontColor=default;strokeColor=default;fillColor=#2A9D8F;strokeWidth=2;fillWeight=2;hachureGap=8;fillStyle=dots;sketch=1;opacity=60;" parent="KkZHtV6HfjBjP-QfyIvR-1" vertex="1"><mxGeometry x="545" y="850" width="120" height="60" as="geometry"/></mxCell><mxCell id="Fyzt-uK-mrvEkcZ5hX47-31" style="edgeStyle=orthogonalEdgeStyle;html=1;fontSize=19;startArrow=classic;startFill=1;" parent="KkZHtV6HfjBjP-QfyIvR-1" source="Fyzt-uK-mrvEkcZ5hX47-28" target="Fyzt-uK-mrvEkcZ5hX47-6" edge="1"><mxGeometry relative="1" as="geometry"/></mxCell><mxCell id="Fyzt-uK-mrvEkcZ5hX47-28" value="&lt;font style=&quot;font-size: 18px&quot;&gt;client&lt;/font&gt;" style="rounded=0;whiteSpace=wrap;html=1;fontFamily=Helvetica;fontSize=12;fontColor=default;strokeColor=default;fillColor=#2A9D8F;strokeWidth=2;fillWeight=2;hachureGap=8;fillStyle=dots;sketch=1;opacity=60;" parent="KkZHtV6HfjBjP-QfyIvR-1" vertex="1"><mxGeometry x="680" y="850" width="120" height="60" as="geometry"/></mxCell><mxCell id="qVk-_wfB0VwJsGi2b_M8-7" style="edgeStyle=orthogonalEdgeStyle;html=1;fontSize=16;startArrow=none;startFill=0;" parent="KkZHtV6HfjBjP-QfyIvR-1" source="qVk-_wfB0VwJsGi2b_M8-0" target="qVk-_wfB0VwJsGi2b_M8-3" edge="1"><mxGeometry relative="1" as="geometry"/></mxCell><mxCell id="qVk-_wfB0VwJsGi2b_M8-0" value="readQueryFromClient" style="rounded=1;whiteSpace=wrap;html=1;strokeWidth=2;fillWeight=2;hachureGap=8;hachureAngle=45;fillColor=#E9C46A;sketch=1;fontSize=16;fillStyle=dots;opacity=60;" parent="KkZHtV6HfjBjP-QfyIvR-1" vertex="1"><mxGeometry x="320" y="1390" width="160" height="60" as="geometry"/></mxCell><mxCell id="qVk-_wfB0VwJsGi2b_M8-15" style="edgeStyle=orthogonalEdgeStyle;html=1;entryX=0.5;entryY=0;entryDx=0;entryDy=0;fontSize=16;startArrow=none;startFill=0;" parent="KkZHtV6HfjBjP-QfyIvR-1" source="qVk-_wfB0VwJsGi2b_M8-1" target="qVk-_wfB0VwJsGi2b_M8-14" edge="1"><mxGeometry relative="1" as="geometry"/></mxCell><mxCell id="qVk-_wfB0VwJsGi2b_M8-1" value="sendReplyToClient" style="rounded=1;whiteSpace=wrap;html=1;strokeWidth=2;fillWeight=2;hachureGap=8;hachureAngle=45;fillColor=#5FAD56;sketch=1;fontSize=16;fillStyle=dots;opacity=60;" parent="KkZHtV6HfjBjP-QfyIvR-1" vertex="1"><mxGeometry x="760" y="1520" width="160" height="60" as="geometry"/></mxCell><mxCell id="qVk-_wfB0VwJsGi2b_M8-11" style="edgeStyle=orthogonalEdgeStyle;html=1;entryX=1;entryY=0.5;entryDx=0;entryDy=0;fontSize=16;startArrow=none;startFill=0;" parent="KkZHtV6HfjBjP-QfyIvR-1" source="qVk-_wfB0VwJsGi2b_M8-2" target="Fyzt-uK-mrvEkcZ5hX47-14" edge="1"><mxGeometry relative="1" as="geometry"/></mxCell><mxCell id="6NB8u1fUYq3-afCTOl22-3" style="edgeStyle=orthogonalEdgeStyle;html=1;entryX=0.5;entryY=0.034;entryDx=0;entryDy=0;entryPerimeter=0;" parent="KkZHtV6HfjBjP-QfyIvR-1" source="qVk-_wfB0VwJsGi2b_M8-2" target="XV-mx9fOP7wpnLU_PU01-0" edge="1"><mxGeometry relative="1" as="geometry"/></mxCell><mxCell id="qVk-_wfB0VwJsGi2b_M8-2" value="beforeSleep" style="rounded=1;whiteSpace=wrap;html=1;strokeWidth=2;fillWeight=2;hachureGap=8;hachureAngle=45;fillColor=#5FAD56;sketch=1;fontSize=16;fillStyle=dots;opacity=60;" parent="KkZHtV6HfjBjP-QfyIvR-1" vertex="1"><mxGeometry x="760" y="1270" width="160" height="60" as="geometry"/></mxCell><mxCell id="qVk-_wfB0VwJsGi2b_M8-9" style="edgeStyle=orthogonalEdgeStyle;html=1;entryX=0.5;entryY=0;entryDx=0;entryDy=0;fontSize=16;startArrow=none;startFill=0;" parent="KkZHtV6HfjBjP-QfyIvR-1" source="qVk-_wfB0VwJsGi2b_M8-3" target="qVk-_wfB0VwJsGi2b_M8-4" edge="1"><mxGeometry relative="1" as="geometry"/></mxCell><mxCell id="qVk-_wfB0VwJsGi2b_M8-3" value="processCommand" style="rounded=1;whiteSpace=wrap;html=1;strokeWidth=2;fillWeight=2;hachureGap=8;hachureAngle=45;fillColor=#E9C46A;sketch=1;fontSize=16;fillStyle=dots;opacity=60;" parent="KkZHtV6HfjBjP-QfyIvR-1" vertex="1"><mxGeometry x="320" y="1500" width="160" height="60" as="geometry"/></mxCell><mxCell id="6NB8u1fUYq3-afCTOl22-5" style="edgeStyle=orthogonalEdgeStyle;html=1;entryX=-0.004;entryY=0.51;entryDx=0;entryDy=0;entryPerimeter=0;" parent="KkZHtV6HfjBjP-QfyIvR-1" source="qVk-_wfB0VwJsGi2b_M8-4" target="XV-mx9fOP7wpnLU_PU01-0" edge="1"><mxGeometry relative="1" as="geometry"/></mxCell><mxCell id="qVk-_wfB0VwJsGi2b_M8-4" value="addReply" style="rounded=1;whiteSpace=wrap;html=1;strokeWidth=2;fillWeight=2;hachureGap=8;hachureAngle=45;fillColor=#E9C46A;sketch=1;fontSize=16;fillStyle=dots;opacity=60;" parent="KkZHtV6HfjBjP-QfyIvR-1" vertex="1"><mxGeometry x="320" y="1610" width="160" height="60" as="geometry"/></mxCell><mxCell id="6NB8u1fUYq3-afCTOl22-6" style="edgeStyle=orthogonalEdgeStyle;html=1;entryX=1;entryY=0.5;entryDx=0;entryDy=0;" parent="KkZHtV6HfjBjP-QfyIvR-1" source="qVk-_wfB0VwJsGi2b_M8-14" target="Fyzt-uK-mrvEkcZ5hX47-2" edge="1"><mxGeometry relative="1" as="geometry"><mxPoint x="1030" y="1300" as="targetPoint"/><Array as="points"><mxPoint x="1000" y="1640"/><mxPoint x="1000" y="1090"/></Array></mxGeometry></mxCell><mxCell id="qVk-_wfB0VwJsGi2b_M8-14" value="writeToClient" style="rounded=1;whiteSpace=wrap;html=1;strokeWidth=2;fillWeight=2;hachureGap=8;hachureAngle=45;fillColor=#5FAD56;sketch=1;fontSize=16;fillStyle=dots;opacity=60;" parent="KkZHtV6HfjBjP-QfyIvR-1" vertex="1"><mxGeometry x="760" y="1610" width="160" height="60" as="geometry"/></mxCell><mxCell id="rrIn8BsDmMunWOERDtQa-18" style="edgeStyle=orthogonalEdgeStyle;html=1;entryX=0.5;entryY=0;entryDx=0;entryDy=0;fontSize=16;startArrow=none;startFill=0;" parent="KkZHtV6HfjBjP-QfyIvR-1" source="rrIn8BsDmMunWOERDtQa-2" target="Fyzt-uK-mrvEkcZ5hX47-14" edge="1"><mxGeometry relative="1" as="geometry"/></mxCell><mxCell id="rrIn8BsDmMunWOERDtQa-2" value="IO事件" style="rounded=1;whiteSpace=wrap;html=1;strokeWidth=2;fillWeight=4;hachureGap=8;hachureAngle=45;fillColor=#5FAD56;sketch=1;fontSize=16;opacity=60;" parent="KkZHtV6HfjBjP-QfyIvR-1" vertex="1"><mxGeometry x="470" y="1160" width="70" height="60" as="geometry"/></mxCell><mxCell id="rrIn8BsDmMunWOERDtQa-19" style="edgeStyle=orthogonalEdgeStyle;html=1;entryX=0.5;entryY=0;entryDx=0;entryDy=0;fontSize=16;startArrow=none;startFill=0;" parent="KkZHtV6HfjBjP-QfyIvR-1" source="rrIn8BsDmMunWOERDtQa-15" target="Fyzt-uK-mrvEkcZ5hX47-14" edge="1"><mxGeometry relative="1" as="geometry"/></mxCell><mxCell id="rrIn8BsDmMunWOERDtQa-15" value="IO事件" style="rounded=1;whiteSpace=wrap;html=1;strokeWidth=2;fillWeight=4;hachureGap=8;hachureAngle=45;fillColor=#5FAD56;sketch=1;fontSize=16;opacity=60;" parent="KkZHtV6HfjBjP-QfyIvR-1" vertex="1"><mxGeometry x="540" y="1160" width="70" height="60" as="geometry"/></mxCell><mxCell id="rrIn8BsDmMunWOERDtQa-20" style="edgeStyle=orthogonalEdgeStyle;html=1;entryX=0.5;entryY=0;entryDx=0;entryDy=0;fontSize=16;startArrow=none;startFill=0;" parent="KkZHtV6HfjBjP-QfyIvR-1" source="rrIn8BsDmMunWOERDtQa-16" target="Fyzt-uK-mrvEkcZ5hX47-14" edge="1"><mxGeometry relative="1" as="geometry"/></mxCell><mxCell id="rrIn8BsDmMunWOERDtQa-16" value="IO事件" style="rounded=1;whiteSpace=wrap;html=1;strokeWidth=2;fillWeight=4;hachureGap=8;hachureAngle=45;fillColor=#5FAD56;sketch=1;fontSize=16;opacity=60;" parent="KkZHtV6HfjBjP-QfyIvR-1" vertex="1"><mxGeometry x="610" y="1160" width="70" height="60" as="geometry"/></mxCell><mxCell id="rrIn8BsDmMunWOERDtQa-22" style="edgeStyle=orthogonalEdgeStyle;html=1;entryX=0.5;entryY=0;entryDx=0;entryDy=0;fontSize=16;startArrow=none;startFill=0;" parent="KkZHtV6HfjBjP-QfyIvR-1" source="rrIn8BsDmMunWOERDtQa-9" target="Fyzt-uK-mrvEkcZ5hX47-14" edge="1"><mxGeometry relative="1" as="geometry"/></mxCell><mxCell id="6NB8u1fUYq3-afCTOl22-10" style="edgeStyle=orthogonalEdgeStyle;html=1;entryX=0.5;entryY=0;entryDx=0;entryDy=0;" parent="KkZHtV6HfjBjP-QfyIvR-1" source="rrIn8BsDmMunWOERDtQa-17" target="Fyzt-uK-mrvEkcZ5hX47-14" edge="1"><mxGeometry relative="1" as="geometry"/></mxCell><mxCell id="rrIn8BsDmMunWOERDtQa-17" value="IO事件" style="rounded=1;whiteSpace=wrap;html=1;strokeWidth=2;fillWeight=4;hachureGap=8;hachureAngle=45;fillColor=#5FAD56;sketch=1;fontSize=16;opacity=60;" parent="KkZHtV6HfjBjP-QfyIvR-1" vertex="1"><mxGeometry x="680" y="1160" width="70" height="60" as="geometry"/></mxCell><mxCell id="rrIn8BsDmMunWOERDtQa-27" value="主线程" style="text;html=1;align=center;verticalAlign=middle;resizable=0;points=[];autosize=1;strokeColor=none;fillColor=none;fontSize=16;" parent="KkZHtV6HfjBjP-QfyIvR-1" vertex="1"><mxGeometry x="1000" y="1050" width="60" height="20" as="geometry"/></mxCell><mxCell id="6NB8u1fUYq3-afCTOl22-4" style="edgeStyle=orthogonalEdgeStyle;html=1;" parent="KkZHtV6HfjBjP-QfyIvR-1" source="XV-mx9fOP7wpnLU_PU01-0" target="qVk-_wfB0VwJsGi2b_M8-1" edge="1"><mxGeometry relative="1" as="geometry"/></mxCell><mxCell id="XV-mx9fOP7wpnLU_PU01-0" value="" style="verticalLabelPosition=bottom;verticalAlign=top;html=1;shape=mxgraph.basic.rect;fillColor2=none;strokeWidth=1;size=20;indent=5;fillColor=none;dashed=1;" parent="KkZHtV6HfjBjP-QfyIvR-1" vertex="1"><mxGeometry x="715" y="1355" width="250" height="145" as="geometry"/></mxCell><mxCell id="PERxdkFZTRLZcZZAvJa3-0" value="&lt;font style=&quot;font-size: 18px&quot;&gt;client&lt;/font&gt;" style="rounded=0;whiteSpace=wrap;html=1;fontFamily=Helvetica;fontSize=12;fontColor=default;strokeColor=default;fillColor=#2A9D8F;strokeWidth=2;fillWeight=2;hachureGap=8;fillStyle=dots;sketch=1;opacity=60;direction=south;" parent="KkZHtV6HfjBjP-QfyIvR-1" vertex="1"><mxGeometry x="745" y="1410" width="70" height="70" as="geometry"/></mxCell><mxCell id="PERxdkFZTRLZcZZAvJa3-1" value="&lt;font style=&quot;font-size: 18px&quot;&gt;client&lt;/font&gt;" style="rounded=0;whiteSpace=wrap;html=1;fontFamily=Helvetica;fontSize=12;fontColor=default;strokeColor=default;fillColor=#2A9D8F;strokeWidth=2;fillWeight=2;hachureGap=8;fillStyle=dots;sketch=1;opacity=60;direction=south;" parent="KkZHtV6HfjBjP-QfyIvR-1" vertex="1"><mxGeometry x="865" y="1410" width="70" height="70" as="geometry"/></mxCell><mxCell id="6NB8u1fUYq3-afCTOl22-0" value="clients_pending_write" style="text;html=1;align=center;verticalAlign=middle;resizable=0;points=[];autosize=1;strokeColor=none;fillColor=none;fontSize=18;" parent="KkZHtV6HfjBjP-QfyIvR-1" vertex="1"><mxGeometry x="745" y="1370" width="190" height="30" as="geometry"/></mxCell></root></mxGraphModel></diagram><diagram id="D5WNsF7SjQdevUL5bSLl" name="multi"><mxGraphModel dx="890" dy="634" grid="1" gridSize="10" guides="1" tooltips="1" connect="1" arrows="1" fold="1" page="1" pageScale="1" pageWidth="3300" pageHeight="4681" math="0" shadow="0"><root><mxCell id="q_E4oddG3_Drv03ctLGm-0"/><mxCell id="q_E4oddG3_Drv03ctLGm-1" parent="q_E4oddG3_Drv03ctLGm-0"/><mxCell id="BRGyFOxaYjBVbTZo5GIt-39" value="" style="verticalLabelPosition=bottom;verticalAlign=top;html=1;shape=mxgraph.basic.rect;fillColor2=none;strokeWidth=1;size=20;indent=5;fillColor=none;dashed=1;" parent="q_E4oddG3_Drv03ctLGm-1" vertex="1"><mxGeometry x="610" y="1000" width="740" height="850" as="geometry"/></mxCell><mxCell id="SyPFVVuLvSQm0flZvW_D-65" value="" style="verticalLabelPosition=bottom;verticalAlign=top;html=1;shape=mxgraph.basic.rect;fillColor2=none;strokeWidth=1;size=20;indent=5;fillColor=none;dashed=1;" parent="q_E4oddG3_Drv03ctLGm-1" vertex="1"><mxGeometry x="990" y="1510" width="250" height="145" as="geometry"/></mxCell><mxCell id="BRGyFOxaYjBVbTZo5GIt-9" value="" style="verticalLabelPosition=bottom;verticalAlign=top;html=1;shape=mxgraph.basic.rect;fillColor2=none;strokeWidth=1;size=20;indent=5;fillColor=none;dashed=1;" parent="q_E4oddG3_Drv03ctLGm-1" vertex="1"><mxGeometry x="720" y="1510" width="250" height="145" as="geometry"/></mxCell><mxCell id="BRGyFOxaYjBVbTZo5GIt-26" style="edgeStyle=orthogonalEdgeStyle;html=1;entryX=0.5;entryY=0;entryDx=0;entryDy=0;fontSize=18;startArrow=none;startFill=0;" parent="q_E4oddG3_Drv03ctLGm-1" source="BRGyFOxaYjBVbTZo5GIt-9" target="phtf48tDKZxFoqqDGEo_-33" edge="1"><mxGeometry relative="1" as="geometry"/></mxCell><mxCell id="SyPFVVuLvSQm0flZvW_D-33" value="" style="verticalLabelPosition=bottom;verticalAlign=top;html=1;shape=mxgraph.basic.rect;fillColor2=none;strokeWidth=1;size=20;indent=5;fillColor=none;dashed=1;" parent="q_E4oddG3_Drv03ctLGm-1" vertex="1"><mxGeometry x="620" y="1210" width="200" height="230" as="geometry"/></mxCell><mxCell id="BRGyFOxaYjBVbTZo5GIt-42" style="edgeStyle=orthogonalEdgeStyle;html=1;entryX=1;entryY=0.5;entryDx=0;entryDy=0;fontSize=18;startArrow=none;startFill=0;" parent="q_E4oddG3_Drv03ctLGm-1" source="phtf48tDKZxFoqqDGEo_-2" target="phtf48tDKZxFoqqDGEo_-7" edge="1"><mxGeometry relative="1" as="geometry"/></mxCell><mxCell id="phtf48tDKZxFoqqDGEo_-2" value="" style="verticalLabelPosition=bottom;verticalAlign=top;html=1;shape=mxgraph.basic.rect;fillColor2=none;strokeWidth=1;size=20;indent=5;fillColor=none;dashed=1;" parent="q_E4oddG3_Drv03ctLGm-1" vertex="1"><mxGeometry x="1130" y="1210" width="200" height="250" as="geometry"/></mxCell><mxCell id="phtf48tDKZxFoqqDGEo_-3" style="edgeStyle=orthogonalEdgeStyle;html=1;entryX=0.5;entryY=0;entryDx=0;entryDy=0;fontSize=16;startArrow=none;startFill=0;" parent="q_E4oddG3_Drv03ctLGm-1" source="phtf48tDKZxFoqqDGEo_-7" target="phtf48tDKZxFoqqDGEo_-38" edge="1"><mxGeometry relative="1" as="geometry"/></mxCell><mxCell id="phtf48tDKZxFoqqDGEo_-4" style="edgeStyle=orthogonalEdgeStyle;html=1;entryX=0.5;entryY=0;entryDx=0;entryDy=0;fontSize=16;startArrow=none;startFill=0;" parent="q_E4oddG3_Drv03ctLGm-1" source="phtf48tDKZxFoqqDGEo_-7" target="phtf48tDKZxFoqqDGEo_-44" edge="1"><mxGeometry relative="1" as="geometry"/></mxCell><mxCell id="phtf48tDKZxFoqqDGEo_-5" style="edgeStyle=orthogonalEdgeStyle;html=1;entryX=0.5;entryY=0;entryDx=0;entryDy=0;fontSize=16;startArrow=none;startFill=0;" parent="q_E4oddG3_Drv03ctLGm-1" source="phtf48tDKZxFoqqDGEo_-7" target="phtf48tDKZxFoqqDGEo_-40" edge="1"><mxGeometry relative="1" as="geometry"/></mxCell><mxCell id="phtf48tDKZxFoqqDGEo_-6" style="edgeStyle=orthogonalEdgeStyle;html=1;entryX=0.5;entryY=0;entryDx=0;entryDy=0;fontSize=16;startArrow=none;startFill=0;" parent="q_E4oddG3_Drv03ctLGm-1" source="phtf48tDKZxFoqqDGEo_-7" target="phtf48tDKZxFoqqDGEo_-42" edge="1"><mxGeometry relative="1" as="geometry"/></mxCell><mxCell id="phtf48tDKZxFoqqDGEo_-7" value="&lt;font style=&quot;font-size: 19px&quot;&gt;I/O&lt;br&gt;Multiplexing&lt;/font&gt;" style="rounded=1;whiteSpace=wrap;html=1;strokeWidth=2;fillWeight=4;hachureGap=8;hachureAngle=45;fillColor=#5FAD56;sketch=1;fontSize=16;opacity=60;" parent="q_E4oddG3_Drv03ctLGm-1" vertex="1"><mxGeometry x="800" y="1020" width="330" height="60" as="geometry"/></mxCell><mxCell id="phtf48tDKZxFoqqDGEo_-8" style="edgeStyle=orthogonalEdgeStyle;html=1;entryX=0.5;entryY=0;entryDx=0;entryDy=0;fontSize=25;startArrow=classic;startFill=1;" parent="q_E4oddG3_Drv03ctLGm-1" source="phtf48tDKZxFoqqDGEo_-9" target="phtf48tDKZxFoqqDGEo_-7" edge="1"><mxGeometry relative="1" as="geometry"><Array as="points"><mxPoint x="830" y="990"/><mxPoint x="965" y="990"/></Array></mxGeometry></mxCell><mxCell id="phtf48tDKZxFoqqDGEo_-9" value="&lt;font style=&quot;font-size: 18px&quot;&gt;socket&lt;/font&gt;" style="ellipse;whiteSpace=wrap;html=1;strokeWidth=2;fillWeight=2;hachureGap=8;fillColor=#E9C46A;fillStyle=dots;sketch=1;fontSize=16;opacity=60;" parent="q_E4oddG3_Drv03ctLGm-1" vertex="1"><mxGeometry x="770" y="910" width="120" height="60" as="geometry"/></mxCell><mxCell id="phtf48tDKZxFoqqDGEo_-10" style="edgeStyle=orthogonalEdgeStyle;html=1;entryX=0.5;entryY=0;entryDx=0;entryDy=0;fontSize=18;exitX=0.5;exitY=1;exitDx=0;exitDy=0;startArrow=classic;startFill=1;" parent="q_E4oddG3_Drv03ctLGm-1" source="phtf48tDKZxFoqqDGEo_-11" target="phtf48tDKZxFoqqDGEo_-7" edge="1"><mxGeometry relative="1" as="geometry"><Array as="points"><mxPoint x="1100" y="990"/><mxPoint x="965" y="990"/></Array></mxGeometry></mxCell><mxCell id="phtf48tDKZxFoqqDGEo_-11" value="&lt;font style=&quot;font-size: 18px&quot;&gt;socket&lt;/font&gt;" style="ellipse;whiteSpace=wrap;html=1;strokeWidth=2;fillWeight=2;hachureGap=8;fillColor=#E9C46A;fillStyle=dots;sketch=1;fontSize=16;opacity=60;" parent="q_E4oddG3_Drv03ctLGm-1" vertex="1"><mxGeometry x="1040" y="910" width="120" height="60" as="geometry"/></mxCell><mxCell id="phtf48tDKZxFoqqDGEo_-12" style="edgeStyle=orthogonalEdgeStyle;html=1;fontSize=16;startArrow=none;startFill=0;" parent="q_E4oddG3_Drv03ctLGm-1" source="phtf48tDKZxFoqqDGEo_-13" target="phtf48tDKZxFoqqDGEo_-15" edge="1"><mxGeometry relative="1" as="geometry"/></mxCell><mxCell id="phtf48tDKZxFoqqDGEo_-13" value="&lt;font style=&quot;font-size: 18px&quot;&gt;aeApiPoll&lt;/font&gt;" style="rounded=1;whiteSpace=wrap;html=1;strokeWidth=2;fillWeight=4;hachureGap=8;hachureAngle=45;fillColor=#5FAD56;sketch=1;fontSize=16;opacity=60;" parent="q_E4oddG3_Drv03ctLGm-1" vertex="1"><mxGeometry x="890" y="1230" width="150" height="60" as="geometry"/></mxCell><mxCell id="phtf48tDKZxFoqqDGEo_-14" style="edgeStyle=orthogonalEdgeStyle;html=1;entryX=0.5;entryY=0;entryDx=0;entryDy=0;fontSize=16;startArrow=none;startFill=0;" parent="q_E4oddG3_Drv03ctLGm-1" source="phtf48tDKZxFoqqDGEo_-15" target="phtf48tDKZxFoqqDGEo_-25" edge="1"><mxGeometry relative="1" as="geometry"/></mxCell><mxCell id="phtf48tDKZxFoqqDGEo_-15" value="acceptTcpHandler" style="rounded=1;whiteSpace=wrap;html=1;strokeWidth=2;fillWeight=2;hachureGap=8;hachureAngle=45;fillColor=#E9C46A;sketch=1;fontSize=16;fillStyle=dots;opacity=60;" parent="q_E4oddG3_Drv03ctLGm-1" vertex="1"><mxGeometry x="640" y="1230" width="160" height="60" as="geometry"/></mxCell><mxCell id="phtf48tDKZxFoqqDGEo_-16" style="edgeStyle=orthogonalEdgeStyle;html=1;entryX=0.5;entryY=0;entryDx=0;entryDy=0;fontSize=18;startArrow=classic;startFill=1;" parent="q_E4oddG3_Drv03ctLGm-1" source="phtf48tDKZxFoqqDGEo_-17" target="phtf48tDKZxFoqqDGEo_-7" edge="1"><mxGeometry relative="1" as="geometry"/></mxCell><mxCell id="phtf48tDKZxFoqqDGEo_-17" value="&lt;font style=&quot;font-size: 18px&quot;&gt;socket&lt;/font&gt;" style="ellipse;whiteSpace=wrap;html=1;strokeWidth=2;fillWeight=2;hachureGap=8;fillColor=#E9C46A;fillStyle=dots;sketch=1;fontSize=16;opacity=60;" parent="q_E4oddG3_Drv03ctLGm-1" vertex="1"><mxGeometry x="905" y="910" width="120" height="60" as="geometry"/></mxCell><mxCell id="phtf48tDKZxFoqqDGEo_-18" style="edgeStyle=orthogonalEdgeStyle;html=1;entryX=0.425;entryY=0;entryDx=0;entryDy=0;entryPerimeter=0;fontSize=19;startArrow=classic;startFill=1;" parent="q_E4oddG3_Drv03ctLGm-1" source="phtf48tDKZxFoqqDGEo_-19" target="phtf48tDKZxFoqqDGEo_-9" edge="1"><mxGeometry relative="1" as="geometry"/></mxCell><mxCell id="phtf48tDKZxFoqqDGEo_-19" value="&lt;font style=&quot;font-size: 18px&quot;&gt;client&lt;/font&gt;" style="rounded=0;whiteSpace=wrap;html=1;fontFamily=Helvetica;fontSize=12;fontColor=default;strokeColor=default;fillColor=#2A9D8F;strokeWidth=2;fillWeight=2;hachureGap=8;fillStyle=dots;sketch=1;opacity=60;" parent="q_E4oddG3_Drv03ctLGm-1" vertex="1"><mxGeometry x="760" y="810" width="120" height="60" as="geometry"/></mxCell><mxCell id="phtf48tDKZxFoqqDGEo_-20" style="edgeStyle=orthogonalEdgeStyle;html=1;entryX=0.5;entryY=0;entryDx=0;entryDy=0;fontSize=19;startArrow=classic;startFill=1;" parent="q_E4oddG3_Drv03ctLGm-1" source="phtf48tDKZxFoqqDGEo_-21" target="phtf48tDKZxFoqqDGEo_-17" edge="1"><mxGeometry relative="1" as="geometry"/></mxCell><mxCell id="phtf48tDKZxFoqqDGEo_-21" value="&lt;font style=&quot;font-size: 18px&quot;&gt;client&lt;/font&gt;" style="rounded=0;whiteSpace=wrap;html=1;fontFamily=Helvetica;fontSize=12;fontColor=default;strokeColor=default;fillColor=#2A9D8F;strokeWidth=2;fillWeight=2;hachureGap=8;fillStyle=dots;sketch=1;opacity=60;" parent="q_E4oddG3_Drv03ctLGm-1" vertex="1"><mxGeometry x="905" y="810" width="120" height="60" as="geometry"/></mxCell><mxCell id="phtf48tDKZxFoqqDGEo_-22" style="edgeStyle=orthogonalEdgeStyle;html=1;fontSize=19;startArrow=classic;startFill=1;" parent="q_E4oddG3_Drv03ctLGm-1" source="phtf48tDKZxFoqqDGEo_-23" target="phtf48tDKZxFoqqDGEo_-11" edge="1"><mxGeometry relative="1" as="geometry"/></mxCell><mxCell id="phtf48tDKZxFoqqDGEo_-23" value="&lt;font style=&quot;font-size: 18px&quot;&gt;client&lt;/font&gt;" style="rounded=0;whiteSpace=wrap;html=1;fontFamily=Helvetica;fontSize=12;fontColor=default;strokeColor=default;fillColor=#2A9D8F;strokeWidth=2;fillWeight=2;hachureGap=8;fillStyle=dots;sketch=1;opacity=60;" parent="q_E4oddG3_Drv03ctLGm-1" vertex="1"><mxGeometry x="1040" y="810" width="120" height="60" as="geometry"/></mxCell><mxCell id="0" style="edgeStyle=orthogonalEdgeStyle;html=1;entryX=0.467;entryY=-0.081;entryDx=0;entryDy=0;entryPerimeter=0;" parent="q_E4oddG3_Drv03ctLGm-1" source="phtf48tDKZxFoqqDGEo_-25" target="BRGyFOxaYjBVbTZo5GIt-10" edge="1"><mxGeometry relative="1" as="geometry"/></mxCell><mxCell id="phtf48tDKZxFoqqDGEo_-25" value="readQueryFromClient" style="rounded=1;whiteSpace=wrap;html=1;strokeWidth=2;fillWeight=2;hachureGap=8;hachureAngle=45;fillColor=#E9C46A;sketch=1;fontSize=16;fillStyle=dots;opacity=60;" parent="q_E4oddG3_Drv03ctLGm-1" vertex="1"><mxGeometry x="640" y="1347.5" width="160" height="60" as="geometry"/></mxCell><mxCell id="phtf48tDKZxFoqqDGEo_-28" style="edgeStyle=orthogonalEdgeStyle;html=1;entryX=1;entryY=0.5;entryDx=0;entryDy=0;fontSize=16;startArrow=none;startFill=0;" parent="q_E4oddG3_Drv03ctLGm-1" source="phtf48tDKZxFoqqDGEo_-31" target="phtf48tDKZxFoqqDGEo_-13" edge="1"><mxGeometry relative="1" as="geometry"/></mxCell><mxCell id="SyPFVVuLvSQm0flZvW_D-68" style="edgeStyle=orthogonalEdgeStyle;html=1;entryX=0.5;entryY=0;entryDx=0;entryDy=0;fontSize=18;startArrow=none;startFill=0;" parent="q_E4oddG3_Drv03ctLGm-1" source="phtf48tDKZxFoqqDGEo_-31" target="SyPFVVuLvSQm0flZvW_D-18" edge="1"><mxGeometry relative="1" as="geometry"/></mxCell><mxCell id="BRGyFOxaYjBVbTZo5GIt-12" style="edgeStyle=orthogonalEdgeStyle;html=1;entryX=0.468;entryY=0.016;entryDx=0;entryDy=0;entryPerimeter=0;fontSize=18;startArrow=none;startFill=0;exitX=0.5;exitY=1;exitDx=0;exitDy=0;" parent="q_E4oddG3_Drv03ctLGm-1" source="phtf48tDKZxFoqqDGEo_-31" target="BRGyFOxaYjBVbTZo5GIt-9" edge="1"><mxGeometry relative="1" as="geometry"><mxPoint x="1250" y="1300" as="sourcePoint"/><Array as="points"><mxPoint x="1230" y="1310"/><mxPoint x="837" y="1310"/></Array></mxGeometry></mxCell><mxCell id="BRGyFOxaYjBVbTZo5GIt-33" style="edgeStyle=orthogonalEdgeStyle;html=1;entryX=0.445;entryY=-0.067;entryDx=0;entryDy=0;entryPerimeter=0;fontSize=18;startArrow=none;startFill=0;" parent="q_E4oddG3_Drv03ctLGm-1" source="phtf48tDKZxFoqqDGEo_-31" target="SyPFVVuLvSQm0flZvW_D-66" edge="1"><mxGeometry relative="1" as="geometry"><Array as="points"><mxPoint x="1230" y="1310"/><mxPoint x="1105" y="1310"/></Array></mxGeometry></mxCell><mxCell id="phtf48tDKZxFoqqDGEo_-31" value="beforeSleep" style="rounded=1;whiteSpace=wrap;html=1;strokeWidth=2;fillWeight=2;hachureGap=8;hachureAngle=45;fillColor=#5FAD56;sketch=1;fontSize=16;fillStyle=dots;opacity=60;" parent="q_E4oddG3_Drv03ctLGm-1" vertex="1"><mxGeometry x="1150" y="1230" width="160" height="60" as="geometry"/></mxCell><mxCell id="phtf48tDKZxFoqqDGEo_-32" style="edgeStyle=orthogonalEdgeStyle;html=1;entryX=0.5;entryY=0;entryDx=0;entryDy=0;fontSize=16;startArrow=none;startFill=0;" parent="q_E4oddG3_Drv03ctLGm-1" source="phtf48tDKZxFoqqDGEo_-33" target="phtf48tDKZxFoqqDGEo_-35" edge="1"><mxGeometry relative="1" as="geometry"/></mxCell><mxCell id="BRGyFOxaYjBVbTZo5GIt-11" style="edgeStyle=orthogonalEdgeStyle;html=1;fontSize=18;startArrow=none;startFill=0;" parent="q_E4oddG3_Drv03ctLGm-1" source="phtf48tDKZxFoqqDGEo_-33" target="phtf48tDKZxFoqqDGEo_-35" edge="1"><mxGeometry relative="1" as="geometry"/></mxCell><mxCell id="phtf48tDKZxFoqqDGEo_-33" value="processCommand" style="rounded=1;whiteSpace=wrap;html=1;strokeWidth=2;fillWeight=2;hachureGap=8;hachureAngle=45;fillColor=#E9C46A;sketch=1;fontSize=16;fillStyle=dots;opacity=60;" parent="q_E4oddG3_Drv03ctLGm-1" vertex="1"><mxGeometry x="765" y="1680" width="160" height="60" as="geometry"/></mxCell><mxCell id="BRGyFOxaYjBVbTZo5GIt-36" style="edgeStyle=orthogonalEdgeStyle;html=1;entryX=0.51;entryY=1.021;entryDx=0;entryDy=0;entryPerimeter=0;fontSize=18;startArrow=none;startFill=0;" parent="q_E4oddG3_Drv03ctLGm-1" source="phtf48tDKZxFoqqDGEo_-35" target="SyPFVVuLvSQm0flZvW_D-65" edge="1"><mxGeometry relative="1" as="geometry"/></mxCell><mxCell id="phtf48tDKZxFoqqDGEo_-35" value="addReply" style="rounded=1;whiteSpace=wrap;html=1;strokeWidth=2;fillWeight=2;hachureGap=8;hachureAngle=45;fillColor=#E9C46A;sketch=1;fontSize=16;fillStyle=dots;opacity=60;" parent="q_E4oddG3_Drv03ctLGm-1" vertex="1"><mxGeometry x="765" y="1770" width="160" height="60" as="geometry"/></mxCell><mxCell id="SyPFVVuLvSQm0flZvW_D-28" style="edgeStyle=orthogonalEdgeStyle;html=1;entryX=1;entryY=0.5;entryDx=0;entryDy=0;fontSize=18;startArrow=none;startFill=0;" parent="q_E4oddG3_Drv03ctLGm-1" source="phtf48tDKZxFoqqDGEo_-36" target="phtf48tDKZxFoqqDGEo_-7" edge="1"><mxGeometry relative="1" as="geometry"/></mxCell><mxCell id="phtf48tDKZxFoqqDGEo_-36" value="writeToClient" style="rounded=1;whiteSpace=wrap;html=1;strokeWidth=2;fillWeight=2;hachureGap=8;hachureAngle=45;fillColor=#5FAD56;sketch=1;fontSize=16;fillStyle=dots;opacity=60;" parent="q_E4oddG3_Drv03ctLGm-1" vertex="1"><mxGeometry x="1385" y="1020" width="160" height="60" as="geometry"/></mxCell><mxCell id="phtf48tDKZxFoqqDGEo_-37" style="edgeStyle=orthogonalEdgeStyle;html=1;entryX=0.5;entryY=0;entryDx=0;entryDy=0;fontSize=16;startArrow=none;startFill=0;" parent="q_E4oddG3_Drv03ctLGm-1" source="phtf48tDKZxFoqqDGEo_-38" target="phtf48tDKZxFoqqDGEo_-13" edge="1"><mxGeometry relative="1" as="geometry"/></mxCell><mxCell id="phtf48tDKZxFoqqDGEo_-38" value="IO事件" style="rounded=1;whiteSpace=wrap;html=1;strokeWidth=2;fillWeight=4;hachureGap=8;hachureAngle=45;fillColor=#5FAD56;sketch=1;fontSize=16;opacity=60;" parent="q_E4oddG3_Drv03ctLGm-1" vertex="1"><mxGeometry x="830" y="1120" width="70" height="60" as="geometry"/></mxCell><mxCell id="phtf48tDKZxFoqqDGEo_-39" style="edgeStyle=orthogonalEdgeStyle;html=1;entryX=0.5;entryY=0;entryDx=0;entryDy=0;fontSize=16;startArrow=none;startFill=0;" parent="q_E4oddG3_Drv03ctLGm-1" source="phtf48tDKZxFoqqDGEo_-40" target="phtf48tDKZxFoqqDGEo_-13" edge="1"><mxGeometry relative="1" as="geometry"/></mxCell><mxCell id="phtf48tDKZxFoqqDGEo_-40" value="IO事件" style="rounded=1;whiteSpace=wrap;html=1;strokeWidth=2;fillWeight=4;hachureGap=8;hachureAngle=45;fillColor=#5FAD56;sketch=1;fontSize=16;opacity=60;" parent="q_E4oddG3_Drv03ctLGm-1" vertex="1"><mxGeometry x="900" y="1120" width="70" height="60" as="geometry"/></mxCell><mxCell id="phtf48tDKZxFoqqDGEo_-41" style="edgeStyle=orthogonalEdgeStyle;html=1;entryX=0.5;entryY=0;entryDx=0;entryDy=0;fontSize=16;startArrow=none;startFill=0;" parent="q_E4oddG3_Drv03ctLGm-1" source="phtf48tDKZxFoqqDGEo_-42" target="phtf48tDKZxFoqqDGEo_-13" edge="1"><mxGeometry relative="1" as="geometry"/></mxCell><mxCell id="phtf48tDKZxFoqqDGEo_-42" value="IO事件" style="rounded=1;whiteSpace=wrap;html=1;strokeWidth=2;fillWeight=4;hachureGap=8;hachureAngle=45;fillColor=#5FAD56;sketch=1;fontSize=16;opacity=60;" parent="q_E4oddG3_Drv03ctLGm-1" vertex="1"><mxGeometry x="970" y="1120" width="70" height="60" as="geometry"/></mxCell><mxCell id="phtf48tDKZxFoqqDGEo_-43" style="edgeStyle=orthogonalEdgeStyle;html=1;entryX=0.5;entryY=0;entryDx=0;entryDy=0;fontSize=16;startArrow=none;startFill=0;" parent="q_E4oddG3_Drv03ctLGm-1" source="phtf48tDKZxFoqqDGEo_-44" target="phtf48tDKZxFoqqDGEo_-13" edge="1"><mxGeometry relative="1" as="geometry"/></mxCell><mxCell id="phtf48tDKZxFoqqDGEo_-44" value="IO事件" style="rounded=1;whiteSpace=wrap;html=1;strokeWidth=2;fillWeight=4;hachureGap=8;hachureAngle=45;fillColor=#5FAD56;sketch=1;fontSize=16;opacity=60;" parent="q_E4oddG3_Drv03ctLGm-1" vertex="1"><mxGeometry x="1040" y="1120" width="70" height="60" as="geometry"/></mxCell><mxCell id="phtf48tDKZxFoqqDGEo_-45" value="主线程" style="text;html=1;align=center;verticalAlign=middle;resizable=0;points=[];autosize=1;strokeColor=none;fillColor=none;fontSize=16;" parent="q_E4oddG3_Drv03ctLGm-1" vertex="1"><mxGeometry x="1290" y="1010" width="60" height="20" as="geometry"/></mxCell><mxCell id="SyPFVVuLvSQm0flZvW_D-18" value="sendReplyToClient" style="rounded=1;whiteSpace=wrap;html=1;strokeWidth=2;fillWeight=2;hachureGap=8;hachureAngle=45;fillColor=#5FAD56;sketch=1;fontSize=16;fillStyle=dots;opacity=60;" parent="q_E4oddG3_Drv03ctLGm-1" vertex="1"><mxGeometry x="1150" y="1360" width="160" height="60" as="geometry"/></mxCell><mxCell id="SyPFVVuLvSQm0flZvW_D-32" style="edgeStyle=orthogonalEdgeStyle;html=1;entryX=0;entryY=0.5;entryDx=0;entryDy=0;fontSize=18;startArrow=classic;startFill=1;" parent="q_E4oddG3_Drv03ctLGm-1" source="SyPFVVuLvSQm0flZvW_D-29" target="phtf48tDKZxFoqqDGEo_-7" edge="1"><mxGeometry relative="1" as="geometry"/></mxCell><mxCell id="SyPFVVuLvSQm0flZvW_D-29" value="readQueryFromClient" style="rounded=1;whiteSpace=wrap;html=1;strokeWidth=2;fillWeight=2;hachureGap=8;hachureAngle=45;fillColor=#E9C46A;sketch=1;fontSize=16;fillStyle=dots;opacity=60;" parent="q_E4oddG3_Drv03ctLGm-1" vertex="1"><mxGeometry x="420" y="1020" width="160" height="60" as="geometry"/></mxCell><mxCell id="SyPFVVuLvSQm0flZvW_D-71" style="edgeStyle=orthogonalEdgeStyle;html=1;entryX=0.5;entryY=1;entryDx=0;entryDy=0;fontSize=18;startArrow=none;startFill=0;" parent="q_E4oddG3_Drv03ctLGm-1" source="SyPFVVuLvSQm0flZvW_D-59" target="phtf48tDKZxFoqqDGEo_-36" edge="1"><mxGeometry relative="1" as="geometry"/></mxCell><mxCell id="SyPFVVuLvSQm0flZvW_D-59" value="&lt;font style=&quot;font-size: 18px&quot;&gt;I/O&lt;br&gt;Thread&lt;br&gt;&lt;/font&gt;" style="rounded=1;whiteSpace=wrap;html=1;strokeWidth=2;fillWeight=4;hachureGap=8;hachureAngle=45;fillColor=#E63946;sketch=1;fontSize=16;opacity=60;fillStyle=dashed;direction=south;" parent="q_E4oddG3_Drv03ctLGm-1" vertex="1"><mxGeometry x="1480" y="1210" width="90" height="70" as="geometry"/></mxCell><mxCell id="BRGyFOxaYjBVbTZo5GIt-34" style="edgeStyle=orthogonalEdgeStyle;html=1;entryX=1;entryY=0.5;entryDx=0;entryDy=0;fontSize=18;startArrow=none;startFill=0;" parent="q_E4oddG3_Drv03ctLGm-1" source="SyPFVVuLvSQm0flZvW_D-61" target="SyPFVVuLvSQm0flZvW_D-62" edge="1"><mxGeometry relative="1" as="geometry"><Array as="points"><mxPoint x="1055" y="1640"/><mxPoint x="1405" y="1640"/></Array></mxGeometry></mxCell><mxCell id="SyPFVVuLvSQm0flZvW_D-61" value="&lt;font style=&quot;font-size: 18px&quot;&gt;client&lt;/font&gt;" style="rounded=0;whiteSpace=wrap;html=1;fontFamily=Helvetica;fontSize=12;fontColor=default;strokeColor=default;fillColor=#2A9D8F;strokeWidth=2;fillWeight=2;hachureGap=8;fillStyle=dots;sketch=1;opacity=60;direction=south;" parent="q_E4oddG3_Drv03ctLGm-1" vertex="1"><mxGeometry x="1020" y="1558.75" width="70" height="70" as="geometry"/></mxCell><mxCell id="SyPFVVuLvSQm0flZvW_D-70" style="edgeStyle=orthogonalEdgeStyle;html=1;fontSize=18;startArrow=none;startFill=0;" parent="q_E4oddG3_Drv03ctLGm-1" source="SyPFVVuLvSQm0flZvW_D-62" target="phtf48tDKZxFoqqDGEo_-36" edge="1"><mxGeometry relative="1" as="geometry"/></mxCell><mxCell id="SyPFVVuLvSQm0flZvW_D-62" value="&lt;font style=&quot;font-size: 18px&quot;&gt;I/O&lt;br&gt;Thread&lt;br&gt;&lt;/font&gt;" style="rounded=1;whiteSpace=wrap;html=1;strokeWidth=2;fillWeight=4;hachureGap=8;hachureAngle=45;fillColor=#E63946;sketch=1;fontSize=16;opacity=60;fillStyle=dashed;direction=south;" parent="q_E4oddG3_Drv03ctLGm-1" vertex="1"><mxGeometry x="1360" y="1210" width="90" height="70" as="geometry"/></mxCell><mxCell id="BRGyFOxaYjBVbTZo5GIt-35" style="edgeStyle=orthogonalEdgeStyle;html=1;fontSize=18;startArrow=none;startFill=0;" parent="q_E4oddG3_Drv03ctLGm-1" source="SyPFVVuLvSQm0flZvW_D-64" target="SyPFVVuLvSQm0flZvW_D-59" edge="1"><mxGeometry relative="1" as="geometry"><Array as="points"><mxPoint x="1175" y="1640"/><mxPoint x="1525" y="1640"/></Array></mxGeometry></mxCell><mxCell id="SyPFVVuLvSQm0flZvW_D-64" value="&lt;font style=&quot;font-size: 18px&quot;&gt;client&lt;/font&gt;" style="rounded=0;whiteSpace=wrap;html=1;fontFamily=Helvetica;fontSize=12;fontColor=default;strokeColor=default;fillColor=#2A9D8F;strokeWidth=2;fillWeight=2;hachureGap=8;fillStyle=dots;sketch=1;opacity=60;direction=south;" parent="q_E4oddG3_Drv03ctLGm-1" vertex="1"><mxGeometry x="1140" y="1558.75" width="70" height="70" as="geometry"/></mxCell><mxCell id="SyPFVVuLvSQm0flZvW_D-66" value="clients_pending_write" style="text;html=1;align=center;verticalAlign=middle;resizable=0;points=[];autosize=1;strokeColor=none;fillColor=none;fontSize=18;" parent="q_E4oddG3_Drv03ctLGm-1" vertex="1"><mxGeometry x="1020" y="1510" width="190" height="30" as="geometry"/></mxCell><mxCell id="BRGyFOxaYjBVbTZo5GIt-17" style="edgeStyle=orthogonalEdgeStyle;html=1;entryX=1;entryY=0.5;entryDx=0;entryDy=0;fontSize=18;startArrow=classic;startFill=1;" parent="q_E4oddG3_Drv03ctLGm-1" source="BRGyFOxaYjBVbTZo5GIt-7" target="BRGyFOxaYjBVbTZo5GIt-14" edge="1"><mxGeometry relative="1" as="geometry"><Array as="points"><mxPoint x="790" y="1640"/><mxPoint x="435" y="1640"/></Array></mxGeometry></mxCell><mxCell id="BRGyFOxaYjBVbTZo5GIt-7" value="&lt;font style=&quot;font-size: 18px&quot;&gt;client&lt;/font&gt;" style="rounded=0;whiteSpace=wrap;html=1;fontFamily=Helvetica;fontSize=12;fontColor=default;strokeColor=default;fillColor=#2A9D8F;strokeWidth=2;fillWeight=2;hachureGap=8;fillStyle=dots;sketch=1;opacity=60;direction=south;" parent="q_E4oddG3_Drv03ctLGm-1" vertex="1"><mxGeometry x="755" y="1558.75" width="70" height="70" as="geometry"/></mxCell><mxCell id="BRGyFOxaYjBVbTZo5GIt-27" style="edgeStyle=orthogonalEdgeStyle;html=1;entryX=1;entryY=0.5;entryDx=0;entryDy=0;fontSize=18;startArrow=classic;startFill=1;" parent="q_E4oddG3_Drv03ctLGm-1" source="BRGyFOxaYjBVbTZo5GIt-8" target="BRGyFOxaYjBVbTZo5GIt-15" edge="1"><mxGeometry relative="1" as="geometry"><Array as="points"><mxPoint x="910" y="1640"/><mxPoint x="555" y="1640"/></Array></mxGeometry></mxCell><mxCell id="BRGyFOxaYjBVbTZo5GIt-8" value="&lt;font style=&quot;font-size: 18px&quot;&gt;client&lt;/font&gt;" style="rounded=0;whiteSpace=wrap;html=1;fontFamily=Helvetica;fontSize=12;fontColor=default;strokeColor=default;fillColor=#2A9D8F;strokeWidth=2;fillWeight=2;hachureGap=8;fillStyle=dots;sketch=1;opacity=60;direction=south;" parent="q_E4oddG3_Drv03ctLGm-1" vertex="1"><mxGeometry x="875" y="1558.75" width="70" height="70" as="geometry"/></mxCell><mxCell id="BRGyFOxaYjBVbTZo5GIt-10" value="clients_pending_read" style="text;html=1;align=center;verticalAlign=middle;resizable=0;points=[];autosize=1;strokeColor=none;fillColor=none;fontSize=18;" parent="q_E4oddG3_Drv03ctLGm-1" vertex="1"><mxGeometry x="750" y="1515" width="190" height="30" as="geometry"/></mxCell><mxCell id="BRGyFOxaYjBVbTZo5GIt-20" style="edgeStyle=orthogonalEdgeStyle;html=1;entryX=0.5;entryY=1;entryDx=0;entryDy=0;fontSize=18;startArrow=classic;startFill=1;" parent="q_E4oddG3_Drv03ctLGm-1" source="BRGyFOxaYjBVbTZo5GIt-14" target="SyPFVVuLvSQm0flZvW_D-29" edge="1"><mxGeometry relative="1" as="geometry"/></mxCell><mxCell id="BRGyFOxaYjBVbTZo5GIt-14" value="&lt;font style=&quot;font-size: 18px&quot;&gt;I/O&lt;br&gt;Thread&lt;br&gt;&lt;/font&gt;" style="rounded=1;whiteSpace=wrap;html=1;strokeWidth=2;fillWeight=4;hachureGap=8;hachureAngle=45;fillColor=#E63946;sketch=1;fontSize=16;opacity=60;fillStyle=dashed;direction=south;" parent="q_E4oddG3_Drv03ctLGm-1" vertex="1"><mxGeometry x="390" y="1210" width="90" height="70" as="geometry"/></mxCell><mxCell id="BRGyFOxaYjBVbTZo5GIt-21" style="edgeStyle=orthogonalEdgeStyle;html=1;entryX=0.5;entryY=1;entryDx=0;entryDy=0;fontSize=18;startArrow=classic;startFill=1;" parent="q_E4oddG3_Drv03ctLGm-1" source="BRGyFOxaYjBVbTZo5GIt-15" target="SyPFVVuLvSQm0flZvW_D-29" edge="1"><mxGeometry relative="1" as="geometry"/></mxCell><mxCell id="BRGyFOxaYjBVbTZo5GIt-15" value="&lt;font style=&quot;font-size: 18px&quot;&gt;I/O&lt;br&gt;Thread&lt;br&gt;&lt;/font&gt;" style="rounded=1;whiteSpace=wrap;html=1;strokeWidth=2;fillWeight=4;hachureGap=8;hachureAngle=45;fillColor=#E63946;sketch=1;fontSize=16;opacity=60;fillStyle=dashed;direction=south;" parent="q_E4oddG3_Drv03ctLGm-1" vertex="1"><mxGeometry x="510" y="1210" width="90" height="70" as="geometry"/></mxCell></root></mxGraphModel></diagram></mxfile>